<mxfile host="Electron" modified="2024-04-14T16:14:22.408Z" agent="Mozilla/5.0 (Windows NT 10.0; Win64; x64) AppleWebKit/537.36 (KHTML, like Gecko) draw.io/24.1.0 Chrome/120.0.6099.109 Electron/28.1.0 Safari/537.36" etag="INdkVXH7FTvYe-U6_-_E" version="24.1.0" type="device">
  <diagram name="第 1 页" id="Mk6r276oayxkAZw9fOt4">
    <mxGraphModel dx="521" dy="613" grid="1" gridSize="10" guides="1" tooltips="1" connect="1" arrows="1" fold="1" page="1" pageScale="1" pageWidth="827" pageHeight="1169" math="0" shadow="0">
      <root>
        <mxCell id="0" />
        <mxCell id="1" parent="0" />
        <mxCell id="J758U2zK60CFVj3KoB6e-2" value="API" style="rounded=0;whiteSpace=wrap;html=1;" vertex="1" parent="1">
          <mxGeometry x="260" y="280" width="80" height="50" as="geometry" />
        </mxCell>
        <mxCell id="J758U2zK60CFVj3KoB6e-3" style="rounded=0;orthogonalLoop=1;jettySize=auto;html=1;exitX=0.5;exitY=1;exitDx=0;exitDy=0;entryX=0;entryY=0;entryDx=0;entryDy=0;endArrow=none;endFill=0;" edge="1" parent="1" source="J758U2zK60CFVj3KoB6e-4" target="J758U2zK60CFVj3KoB6e-2">
          <mxGeometry relative="1" as="geometry" />
        </mxCell>
        <mxCell id="J758U2zK60CFVj3KoB6e-4" value="&lt;span style=&quot;color: rgb(6, 6, 7); font-family: -apple-system, blinkmacsystemfont, &amp;quot;Helvetica Neue&amp;quot;, helvetica, &amp;quot;segoe ui&amp;quot;, arial, roboto, &amp;quot;PingFang SC&amp;quot;, miui, &amp;quot;Hiragino Sans GB&amp;quot;, &amp;quot;Microsoft Yahei&amp;quot;, sans-serif; font-size: 14px; letter-spacing: 0.5px; text-align: left; background-color: rgb(255, 255, 255);&quot;&gt;APIID&lt;/span&gt;" style="rounded=1;whiteSpace=wrap;html=1;" vertex="1" parent="1">
          <mxGeometry x="190" y="200" width="80" height="30" as="geometry" />
        </mxCell>
        <mxCell id="J758U2zK60CFVj3KoB6e-6" value="&lt;div style=&quot;text-align: left;&quot;&gt;&lt;span style=&quot;color: rgb(6, 6, 7); font-family: -apple-system, blinkmacsystemfont, &amp;quot;Helvetica Neue&amp;quot;, helvetica, &amp;quot;segoe ui&amp;quot;, arial, roboto, &amp;quot;PingFang SC&amp;quot;, miui, &amp;quot;Hiragino Sans GB&amp;quot;, &amp;quot;Microsoft Yahei&amp;quot;, sans-serif; font-size: 14px; letter-spacing: 0.5px; background-color: rgb(255, 255, 255);&quot;&gt;APIKey&lt;/span&gt;&lt;br&gt;&lt;/div&gt;" style="rounded=1;whiteSpace=wrap;html=1;" vertex="1" parent="1">
          <mxGeometry x="350" y="200" width="80" height="30" as="geometry" />
        </mxCell>
        <mxCell id="J758U2zK60CFVj3KoB6e-7" style="rounded=0;orthogonalLoop=1;jettySize=auto;html=1;exitX=1;exitY=0;exitDx=0;exitDy=0;entryX=0.5;entryY=1;entryDx=0;entryDy=0;endArrow=none;endFill=0;" edge="1" parent="1" source="J758U2zK60CFVj3KoB6e-2" target="J758U2zK60CFVj3KoB6e-6">
          <mxGeometry relative="1" as="geometry" />
        </mxCell>
      </root>
    </mxGraphModel>
  </diagram>
</mxfile>
